<?xml version="1.0" encoding="UTF-8"?>
<svg width="342" height="345" viewBox="0 0 342 345" xmlns="http://www.w3.org/2000/svg">
                    <g transform="translate(0,345) scale(0.1,-0.1)" fill="#2563EB">
                        <path d="M1587 3400 l-377 -5 -22 -35 c-11 -19 -35 -60 -51 -90 -33 -61 -179
-319 -237 -420 -20 -36 -51 -92 -69 -125 l-33 -60 71 -119 c44 -73 68 -123 62
-129 -6 -6 -44 10 -98 41 -103 58 -71 66 -293 -68 -80 -47 -228 -135 -330
-195 -102 -59 -186 -109 -188 -110 -2 -2 -3 -189 -2 -416 0 -314 3 -416 13
-426 6 -6 109 -66 227 -133 118 -67 277 -158 353 -201 77 -44 141 -79 144 -79
3 0 59 32 123 70 64 39 120 70 124 70 17 0 2 -43 -39 -110 -24 -41 -45 -80
-45 -85 0 -11 102 -187 304 -528 l117 -197 347 1 c191 0 381 3 423 6 l77 5 60
107 c287 507 342 606 342 618 0 7 -29 62 -65 122 -36 60 -65 117 -65 126 0 13
22 5 96 -36 83 -45 99 -50 120 -40 13 6 106 60 207 119 100 60 250 149 332
197 83 49 153 94 157 99 4 6 5 196 2 421 -5 365 -8 411 -22 423 -10 8 -78 48
-152 89 -74 42 -228 129 -343 195 -114 65 -215 118 -224 118 -9 0 -24 -6 -32
-13 -31 -26 -191 -117 -206 -117 -22 0 -20 8 36 104 l50 88 -78 132 c-42 72
-121 205 -174 296 -185 314 -174 300 -222 298 -23 -2 -212 -5 -420 -8z m363
-86 c0 -9 -15 -42 -33 -73 -19 -31 -69 -119 -112 -196 -136 -242 -174 -310
-182 -321 -6 -9 -108 -13 -353 -15 -306 -4 -345 -2 -348 12 -4 23 325 597 346
602 9 2 167 4 350 6 304 2 332 1 332 -15z m-328 -691 c9 -10 53 -81 98 -158
46 -77 107 -180 137 -230 51 -85 54 -93 51 -150 l-3 -60 -315 -6 c-277 -4
-317 -3 -328 10 -36 43 -343 575 -338 587 4 11 49 14 228 17 123 1 275 3 339
5 100 2 118 0 131 -15z m983 -451 c4 -187 5 -347 1 -358 -3 -10 -34 -35 -68
-54 -104 -58 -129 -73 -248 -144 -63 -38 -129 -77 -146 -87 -17 -9 -42 -23
-55 -31 -13 -7 -35 -21 -48 -31 -50 -36 -51 -26 -49 351 l3 346 75 45 c41 24
172 102 290 172 118 70 220 128 226 128 8 1 14 -96 19 -337z m386 173 c161
-91 296 -171 300 -178 10 -18 17 -674 8 -689 -10 -15 -14 -13 -364 185 -126
71 -236 137 -242 145 -15 19 -19 702 -4 702 4 0 140 -74 302 -165z m-2803
-402 c37 -20 159 -88 272 -152 113 -64 214 -121 225 -126 18 -9 21 -24 26
-125 4 -63 7 -222 8 -352 1 -267 5 -256 -71 -214 -77 42 -231 129 -303 169
-38 21 -108 60 -154 86 -52 29 -87 54 -92 69 -5 13 -9 172 -9 353 0 294 2 329
16 329 9 0 46 -16 82 -37z m1216 -306 c4 -163 5 -308 2 -322 -4 -16 -27 -36
-69 -60 -66 -39 -77 -45 -343 -203 -95 -56 -179 -102 -188 -102 -15 0 -16 32
-14 352 l3 352 120 71 c393 235 354 215 420 212 l60 -2 9 -298z m516 -242 c6
-43 -6 -35 268 -187 l113 -63 85 -142 c97 -163 101 -171 83 -177 -8 -3 -166
-6 -352 -9 l-338 -4 -71 121 c-39 67 -105 177 -146 246 -62 103 -76 134 -80
177 -7 84 -12 82 226 80 l207 -2 5 -40z m555 -655 c4 -6 -26 -68 -66 -138 -40
-70 -86 -152 -102 -182 -17 -30 -60 -107 -97 -170 l-66 -115 -159 -7 c-88 -5
-245 -7 -350 -5 -169 2 -190 4 -189 18 1 9 50 102 109 205 123 216 179 315
202 361 11 22 25 33 42 35 14 2 171 5 347 6 235 3 324 1 329 -8z"/>
                    </g>
                </svg>